<svg xmlns="http://www.w3.org/2000/svg" fill="none" viewBox="0 0 50 50"><path fill="#b6c4cf" d="M50 27.848v-5.696a2.02 2.02 0 0 0-2.022-2.022H45.8a2.02 2.02 0 0 1-1.917-1.385 20 20 0 0 0-1.107-2.669 2.02 2.02 0 0 1 .375-2.339l1.542-1.541c.79-.79.79-2.07 0-2.86l-4.028-4.028c-.79-.79-2.07-.79-2.86 0L36.263 6.85a2.02 2.02 0 0 1-2.34.375 20 20 0 0 0-2.668-1.107A2.02 2.02 0 0 1 29.87 4.2V2.023A2.02 2.02 0 0 0 27.848 0h-5.696a2.02 2.02 0 0 0-2.022 2.022V4.2a2.02 2.02 0 0 1-1.385 1.918 20 20 0 0 0-2.669 1.106 2.02 2.02 0 0 1-2.339-.375l-1.541-1.542c-.79-.79-2.07-.79-2.86 0L5.308 9.336c-.79.79-.79 2.07 0 2.86l1.542 1.541c.617.617.767 1.56.375 2.34a20 20 0 0 0-1.107 2.668 2.02 2.02 0 0 1-1.186 1.248c-.229.089-.375.238-.63.238h-2.18a2.02 2.02 0 0 0-2.021 2.021v5.496c0 1.116.905 2.021 2.022 2.021H4.3c.871 0 1.644.66 1.918 1.486q.46 1.383 1.106 2.669c.392.78.242 1.722-.375 2.339l-1.44 1.541c-.79.79-.79 2.07 0 2.86l3.826 3.826c.79.79 2.07.79 2.86 0l1.541-1.54a2.02 2.02 0 0 1 2.34-.376c.855.43 1.948.902 2.87 1.207a2.02 2.02 0 0 1 1.384 1.918v2.179c0 1.116.905 2.022 2.022 2.022h5.395a2.02 2.02 0 0 0 2.022-2.022v-2.18c0-.255.148-.401.237-.63a2.02 2.02 0 0 1 1.248-1.186 20 20 0 0 0 2.669-1.107 2.02 2.02 0 0 1 2.339.375l1.541 1.542c.79.79 2.07.79 2.86 0l4.028-4.028c.79-.79.79-2.07 0-2.86l-1.542-1.541a2.02 2.02 0 0 1-.375-2.34c.43-.855.802-1.747 1.107-2.668A2.02 2.02 0 0 1 45.8 29.87h2.178A2.02 2.02 0 0 0 50 27.848"/><path fill="#9facba" d="M30.007 45.068a2 2 0 0 0-.137.732v2.178A2.02 2.02 0 0 1 27.848 50h-5.696a2.02 2.02 0 0 1-2.022-2.022V45.8c0-.871-.559-1.645-1.386-1.919a20 20 0 0 1-2.668-1.105 2.02 2.02 0 0 0-2.339.374l-1.54 1.541c-.79.79-2.071.79-2.861 0l-4.028-4.027a2.024 2.024 0 0 1 0-2.86l1.542-1.541c.617-.617.767-1.56.374-2.34q-.646-1.285-1.105-2.668A2.02 2.02 0 0 0 4.2 29.87H2.022A2.02 2.02 0 0 1 0 27.848v-5.696c0-1.117.905-2.022 2.022-2.022H4.2c.256 0 .503-.049.732-.137q-.003.188-.003.38c0 13.64 11.058 24.698 24.699 24.698q.19 0 .379-.003"/><path fill="#9facba" d="M25 41.6c9.168 0 16.6-7.432 16.6-16.6S34.168 8.4 25 8.4 8.4 15.832 8.4 25 15.832 41.6 25 41.6"/><path fill="#f8f7f7" d="M25 38.078c7.223 0 13.078-5.855 13.078-13.078S32.223 11.922 25 11.922 11.92 17.777 11.92 25 17.777 38.078 25 38.078"/></svg>
