<svg xmlns="http://www.w3.org/2000/svg" fill="none" viewBox="0 0 115 34"><path fill="#f1a501" d="m74.08 28.304 9.5 3 8-8 10 7 10.5-2-4.5-14.5-16 5-9-5-9.5 1.5z"/><path fill="#000" d="M0 23.368v-2.162l6.118-1.104v2.99q.046 2.438 1.242 3.68 1.242 1.196 3.266 1.196 1.978 0 3.128-1.288 1.196-1.288 1.196-3.45V.69h6.348v22.54q0 4.507-2.99 7.636-2.99 3.128-7.636 3.128-4.83 0-7.774-2.898Q0 28.151 0 23.368M22.757 27.14q0-2.897 1.886-4.646 1.885-1.748 4.876-2.208l5.566-.828q1.701-.23 1.702-1.61 0-1.288-1.012-2.116-.967-.828-2.806-.828-1.932 0-3.082 1.058-1.104 1.058-1.242 2.622l-5.428-1.15q.321-2.944 2.898-5.198 2.575-2.254 6.808-2.254 5.06 0 7.452 2.438 2.392 2.393 2.392 6.164v11.132q0 2.024.276 3.588H37.43q-.23-1.013-.23-2.714-2.163 3.358-6.67 3.358-3.496 0-5.658-2.024-2.116-2.025-2.116-4.784m9.062 2.254q2.162 0 3.542-1.196 1.426-1.242 1.426-4.048v-1.012l-5.106.782q-2.806.414-2.806 2.852 0 1.104.782 1.886.782.735 2.162.736M66.738 0v29.21q0 2.254.184 4.094H61.08q-.23-1.15-.23-2.622-.783 1.425-2.484 2.3-1.656.874-3.864.874-4.83 0-7.958-3.358-3.082-3.404-3.082-8.556 0-5.015 3.036-8.418 3.081-3.404 7.82-3.404 4.875 0 6.394 2.806V0zM49.626 21.942q0 2.99 1.564 4.738 1.564 1.702 4.048 1.702 2.438 0 4.002-1.748t1.564-4.738q0-2.944-1.564-4.6-1.564-1.702-4.002-1.702-2.439 0-4.048 1.702-1.564 1.702-1.564 4.646M75.767 26.726q1.701 1.702 4.094 1.702 2.391 0 4.048-1.702 1.701-1.702 1.702-4.738t-1.702-4.738q-1.656-1.702-4.048-1.702t-4.094 1.702q-1.656 1.702-1.656 4.738t1.656 4.738m-4.416-13.34q3.404-3.404 8.51-3.404t8.464 3.404q3.404 3.405 3.404 8.602t-3.404 8.602q-3.358 3.405-8.464 3.404t-8.51-3.404q-3.358-3.405-3.358-8.602t3.358-8.602"/><path fill="#000" d="M98.95 26.726q1.702 1.702 4.094 1.702t4.048-1.702q1.702-1.702 1.702-4.738t-1.702-4.738q-1.656-1.702-4.048-1.702T98.95 17.25q-1.656 1.702-1.656 4.738t1.656 4.738m-4.416-13.34q3.404-3.404 8.51-3.404t8.464 3.404q3.404 3.405 3.404 8.602t-3.404 8.602q-3.358 3.405-8.464 3.404t-8.51-3.404q-3.358-3.405-3.358-8.602t3.358-8.602"/></svg>