<svg width="64" height="64" xmlns="http://www.w3.org/2000/svg">

 <g>
  <title>Layer 1</title>
  <g stroke="null">
   <path stroke="null" fill="#f1a501" d="m8.23977,40.57819l12.93537,4.08485l10.89294,-10.89294l13.61618,9.53132l14.29699,-2.72324l-6.12728,-19.74346l-21.78588,6.80809l-12.25456,-6.80809l-12.93537,2.04243l1.36162,17.70103z" class="a"/>
   <path stroke="null" d="m36.01677,20.29009q4.6295,-4.6295 11.57375,-4.6295q7.08041,0 11.57375,4.6295q4.6295,4.6295 4.6295,11.70991q0,7.08041 -4.6295,11.70991q-4.49334,4.6295 -11.57375,4.6295q-6.94425,0 -11.57375,-4.6295q-4.49334,-4.6295 -4.49334,-11.70991q0,-7.08041 4.49334,-11.70991zm6.12728,18.10952q2.31475,2.31475 5.44647,2.31475q3.26788,0 5.58263,-2.31475q2.31475,-2.31475 2.31475,-6.3996q0,-4.08485 -2.31475,-6.53576q-2.31475,-2.31475 -5.58263,-2.31475q-3.13172,0 -5.44647,2.31475q-2.31475,2.45091 -2.31475,6.53576q0,4.08485 2.31475,6.3996z"/>
   <path stroke="null" d="m4.69956,20.29009q4.6295,-4.6295 11.57375,-4.6295q7.08041,0 11.57375,4.6295q4.6295,4.6295 4.6295,11.70991q0,7.08041 -4.6295,11.70991q-4.49334,4.6295 -11.57375,4.6295q-6.94425,0 -11.57375,-4.6295q-4.49334,-4.6295 -4.49334,-11.70991q0,-7.08041 4.49334,-11.70991zm6.12728,18.10952q2.31475,2.31475 5.44647,2.31475q3.26788,0 5.58263,-2.31475q2.31475,-2.31475 2.31475,-6.3996q0,-4.08485 -2.31475,-6.53576q-2.31475,-2.31475 -5.58263,-2.31475q-3.13172,0 -5.44647,2.31475q-2.31475,2.45091 -2.31475,6.53576q0,4.08485 2.31475,6.3996z"/>
  </g>
 </g>
</svg>