<svg xmlns="http://www.w3.org/2000/svg" viewBox="9.407 -0.036 303.701 12.791"><path d="M161.94 0c.37.24 1.44.04 2.04.06q1.32.03 2.56.03c.61 0 1.12-.06 1.95.04q.22.02.39.01c.97-.08 2.14-.1 3.43-.06.66-.15 1.79 0 2.84.12.34-.12-.27-.17-.64-.24l2.67.02q.41-.01.91.03.49.04.96.12.24.05.51.07.28.02.44 0c.47-.05 1.22-.01 1.61-.09q.22-.03.56-.01t.65.09q-.33.02-.58.06c-.59.08-.38.23.38.44 1.16-.01 2.34-.01 3.42-.05.59-.03 1.33-.02 2.12.04.78.05 1.59.16 2.33.29q.41.08.85.1.43.02.66-.03.14-.06.09-.14l-.76-.1s.03-.05.04-.06l1.09-.01c.57 0 1.17.02 1.72.02q1.21-.05 2.68.04 1.35.09 2.63.14c.83.03 1.43-.07 2.22-.09q.9-.02 1.94.04c1.2.07 2.29.07 3.19 0 1.04.35 1.55.41 2.52.31l.46-.02.13.07.34-.02q.98-.02 1.99-.03c.95.03 1.97.12 2.97.25.19.03.44.11.61.17s.53.25.8.37c-.29.09-.62.18-.85.28q-.03.03.01.06.04.04.15.07.11.04.27.06.15.03.32.05.32.03.62.04 1.46.01 2.79-.03c.32-.04.76-.04 1.25-.01.5.03 1.01.1 1.46.19 1.15-.06 2.5-.04 3.94.04 1.52-.05 3.35.05 4.78-.06-.04.06.11.15.31.21q.49.13 1.09.23l3 .13q.17.11.42.21.18.09.56.15.37.06.73.07c.6.02 1.1-.03 1.82.09-1.1.1-2.58.09-4.18-.04q-2.27-.15-4.29-.15c-.44 0-1.02 0-1.15.06-.31.18-1.11.15-2.03.12q-1.11-.05-1.95.01-.83.06-1.22.23c-.06.1.09.19.73.26l2.67.24q.59-.04 1.12-.11.9-.09 2.13-.05c.81.03 1.69.1 2.55.21.45.05.89.11 1.21.08q.42-.04.77-.11.07-.04.06-.09.26.02.5.06c1.32.3 2.34.29 3.27.21.25-.02.44-.05.69-.08.26-.03.35-.07.58-.06 1.84.1 2.37-.22 3.92-.21q.11-.02.13-.05.02-.04-.05-.08-.17-.04-.37-.07-.2-.02-.39-.03c-.72-.04-1.34-.03-1.78.04q-.47.04-.99.06l-1.55-.47q2.26.07 4.23 0c.29-.02.77.02 1.17.03l2.96.04c.61.01 1.13-.07 1.97.1 0 0 .56.03.71.01.15-.03.81-.17 1.21-.26.46.02 1.09.1 1.38.07q.75-.09 1.29-.23l1.78.13q0 .18-.19.33-.21.15.01.34.23.2.84.39l1.76.69q.45.07.88.09.44.01.71-.03c.76-.08 1.61-.14 2.37-.22.98.12.72.32 1.44.49l2.3.29c.35.26.71.52-.36.6-.21.02-.07.12-.26.16.83.2 1.74.26 2.59.38q.5.14.82.28c.23.14.69.28 1.3.4.6.12 1.29.19 1.92.22q1.6.11 3.19.33.55.07 1.09.1.54.04.98.02 1.55-.04 2.54-.23c.65-.11 1.52-.16 2.53-.15 1.74.21 2.09.53 3.14.82l-1.82.03c-.06.11.06.25-.69.25-.74 0-.36.1-.12.21q.13.09.47.16t.73.1l1.54.14q.84.08 1.53.07.7-.02 1.05-.13.4-.1 1.06-.13.84-.08 1.36-.23l2.18.15q.15-.16.85-.21c.46-.03 1.04-.01 1.65.04l1.47.1c1.64.1 2 .06 2.48-.23l-1.97-.52q.43-.2.84-.38c-.49-.17-1.14-.34-1.89-.48q-1.05-.22-2.15-.42c-.8-.14-1.64-.27-2.63-.42q-.26-.09-.75-.23-.48-.13-1-.25c.06-.11.12-.22 0-.34q.93.06 1.83.21.9.14 1.57.34.11.03.26.06t.32.05c1.07.07 1.58.24 2.11.44.35.11.8.2 1.3.26q1.42.19 2.78.4.42.07.85.11 1.43.13 2.81.35.45.05.83.14t.6.18q-.34.11-.36.26c-.04.07.63.21.94.31.32.09-.3.05-.51.06-.86.02-1.02.06-.5.28q.26.1.33.2.08.1-.05.17c-.12.21-.49.38-.74.58.39.13 1.05.27 1.13.44q.05.05.21.11t.4.11q.63.1 1.11.24.47.14.68.28.08.06.32.11t.52.07q.34.03.54 0t.17-.1q.01-.12-.09-.26c.04-.06.07-.12-.07-.22.65.04 1.33.11 1.96.21.64.11 1.15.99 1.59 1.13.49.15-269.27.14-270.57.01q-.98-.09-1.87-.1c-.51-.01-1.1-.06-1.66-.13-.57-.08-1.08-.19-1.47-.31q-.77-.22-1.5-.45c-.48-.15-1.05-.34-1.62-.52q-.75-.05-1.46-.06-.56.01-1.22-.05-.67-.07-1.24-.2l.72-.24q-.53-.19-.75-.37-.22-.19-.08-.33c.05-.09-.34-.24-.47-.36q-.26-.16-.09-.27.17-.12.71-.15.67-.07 1.07-.2.13-.03.12-.08 0-.06-.14-.12t-.38-.11-.52-.09q-.86-.09-1.66-.11-1.36-.05-2.61-.06c-.92-.01-1.94-.08-2.96-.2-.92-.11-1.74-.21-2.19-.43-.45-.21-1.16-.21-1.71-.37q.48-.21 1.59-.28.73-.03 1.18-.13t.54-.26l-1.67-.44c-1.34-.2-2.07-.04-3.52-.13l1.49-.16q.04-.02.03-.06c-.14-.32-.37-.39-1.89-.58l-.85-.1-1.35-.13q-.33-.1-.43-.2-.11-.1.04-.17.3-.12.18-.3-.2-.11-.03-.19t.64-.09c.24-.01.25-.09.38-.14q.2-.11.66-.16.45-.05 1.08-.03 1.85.01 3.44-.08l-.19-.02q1.66.07 3.04.01c.91-.04 2.08-.01 3.04-.04.79 0 1.39-.06 1.67-.19.28-.12 1.28-.09 2.04-.07q.68.02 1.31.02c.56-.03 1.27 0 1.99.07q.33.04.63.04 2.77.05 5.5.08.65-.01 1.42.06.33.04.6.03c2.87-.05 6.12.08 8.94.01q.51-.03 1.12-.01c.91.04 1.7.01 2.25-.07q.45-.08 1.12-.08.66-.01 1.43.06c.85.05 1.63.06 2.26.01q1.86-.06 3.89-.05.63.01 1.07-.04.43-.06.59-.17c-.34-.12-.7-.14-1.05-.13q-2.01-.05-3.98-.07-1.77-.06-3.37-.04c-.53.02-1.19-.02-1.84-.11-.79-.11-1.6-.16-2.28-.15q-.75.01-1.57-.03-.54-.04-1.05-.12-.2-.04-.42-.07-.22-.02-.42-.03-.21 0-.36.01t-.23.04c-.51.18-1.64.09-2.61.07-1.46-.29-2.54-.12-3.9-.28q-.17-.02-.31-.02-.15 0-.26.01c-2.64.1-5.71.01-8.47.05q-.47.01-1.02-.05c-2.37-.24-4.65-.31-6.39-.19q-.32.01-.72 0c-1.19-.1-2.33-.14-3.32-.12-1.55 0-3.05 0-4.63-.02-1.08-.03-2.04 0-2.77.1-.02.04-.5 0-.87-.01-.22-.1-.4-.18-.62-.27q-.3-.16-.86-.32-.57-.16-1.29-.28c-.83-.1-.91-.25-.33-.3C11.26.94 13.12.87 15.22.9q2.65.01 5.34.03c1.04.02 2.14.05 3.15.06q.52.02 1.05.06.67.05 1.26.06c1.25-.03 2.64-.01 4.12.08q.81.02 1.55.02 1.74-.04 3.73.05 1.23.04 2.37.04c.27.01.49-.02.75 0 2.28.21 3.9.06 5.95.14q1.5.04 2.85 0 2.62 0 5.38.07c2.43.08 4.68.05 7 .08q.69.01 1.32 0 3.11-.09 6.66.03.81.02 1.41-.04t.89-.19q.12-.09-.15-.2-.43-.15-.98-.29L55.74.58q-.83-.02-1.61-.02-2.3-.01-4.73-.08C47.79.44 46.26.45 44.71.44q-.68-.01-1.4-.03-4.87-.2-9.45-.24c-1.29 0-2.68-.06-3.99-.08S161.94 0 161.94 0m131.62 9.8q-.74-.1-1.49-.18-.19-.02-.35-.01t-.24.03c-.04.07.24.12.49.15q.49.06.94.08.46.01.76-.03l.29-.03zM169.35 1.52l2.57-.03c.3-.01.56-.05.89-.03 1.76.05 3.38.04 4.81-.04q.73-.06 1.67-.02 2.85.09 5.31 0 1.59-.01 2.95-.11.11-.02.13-.06t-.05-.08q-.01-.03-.09-.06-.07-.03-.19-.05-.11-.03-.25-.05t-.27-.02c-1.15-.09-2.23-.12-3.17-.09q-1.31.05-2.8.03c-.94 0-1.58.11-2.75.02-.5-.03-.94-.02-1.24.03-.61.07-1.47.08-2.41.01q-.86-.05-1.6-.04-1.8.04-3.46.12-.53.01-1.12 0L162.7.96q-2.01-.05-3.98-.08-1.62-.04-2.97.03-1.42.08-3.08.06c-1.71.03-3.41.04-5.28.03q-1.78.01-3.64-.02c-.63-.03-1.16-.01-1.49.06-.21.06-.69.01-1.09 0-2.12-.13-4.12-.16-5.84-.09q-.33.02-.72.01c-1.66 0-3.38-.02-4.97-.02q-.63.01-1.18.05.07.06.31.12.25.06.55.08 2.28.17 4.31.18 3.35-.03 6.99.09c1.88.08 3.59.06 5.01-.05 1.11-.08 2.55-.05 4.08.09.65.07 1.29.09 1.82.08q.77-.04 1.72.01 1.98.1 3.78.09c1.16-.03 2.25-.09 3.45-.11 1.19-.02 3.02 0 4.49-.04q2.22-.04 4.38-.01M74.75.99c.92.28.92.27 1.39.34 2.27.27 4.54.41 6.53.41q.68 0 1.1-.08.22-.01.25-.06t-.15-.11l-.73-.2q-1.99-.12-3.91-.2c-1.49-.06-2.81-.06-4.35-.09zm105.3-.37q-.77-.14-1.62-.23-.84-.08-1.58-.08-.58-.01-.86.07t-.16.21c.38.05.89.11 1.17.15.99-.01 1.83-.05 3.05-.12m95.6 7.95q-.63-.12-1.3-.17-.68-.05-1.2-.02c-.17.01-.05.09-.08.14q-.03.02 0 .05.03.02.11.04.08.03.19.04.11.02.22.02.67.05 1.22.03.54-.02.83-.11zm6.4 1.09q-.1-.07-.38-.13t-.61-.09q-.56 0-1 .04c-.32.02-.09.15.34.22q.27.05.56.07.29.03.54.02.24 0 .38-.03.15-.04.16-.09zm21.81-.43c-.15-.02-.31-.04-.33 0q-.06 0-.06.02-.01.02.02.04s.22.02.31.04zm-24.58.31q-.16-.01-.27 0l-.02.04.31.04z" style="fill:#df6951"/></svg>
